<svg width="8" height="8" viewBox="0 0 8 8" fill="none" xmlns="http://www.w3.org/2000/svg">
<mask id="path-1-inside-1" fill="white">
<path fill-rule="evenodd" clip-rule="evenodd" d="M0.862008 0.861886C1.12236 0.601539 1.54447 0.601539 1.80482 0.861886L4.00008 3.05716L6.19535 0.861886C6.45568 0.601539 6.87781 0.601539 7.13815 0.861886C7.39848 1.12224 7.39848 1.54435 7.13815 1.8047L4.94288 3.99996L7.13815 6.19523C7.39848 6.45556 7.39848 6.87769 7.13815 7.13803C6.87781 7.39836 6.45568 7.39836 6.19535 7.13803L4.00008 4.94276L1.80482 7.13803C1.54447 7.39836 1.12236 7.39836 0.862008 7.13803C0.601661 6.87769 0.601661 6.45556 0.862008 6.19523L3.05728 3.99996L0.862008 1.8047C0.601661 1.54435 0.601661 1.12224 0.862008 0.861886Z"/>
</mask>
<path fill-rule="evenodd" clip-rule="evenodd" d="M0.862008 0.861886C1.12236 0.601539 1.54447 0.601539 1.80482 0.861886L4.00008 3.05716L6.19535 0.861886C6.45568 0.601539 6.87781 0.601539 7.13815 0.861886C7.39848 1.12224 7.39848 1.54435 7.13815 1.8047L4.94288 3.99996L7.13815 6.19523C7.39848 6.45556 7.39848 6.87769 7.13815 7.13803C6.87781 7.39836 6.45568 7.39836 6.19535 7.13803L4.00008 4.94276L1.80482 7.13803C1.54447 7.39836 1.12236 7.39836 0.862008 7.13803C0.601661 6.87769 0.601661 6.45556 0.862008 6.19523L3.05728 3.99996L0.862008 1.8047C0.601661 1.54435 0.601661 1.12224 0.862008 0.861886Z" stroke="white" stroke-width="2" mask="url(#path-1-inside-1)"/>
</svg>
