<svg width="34" height="9" viewBox="0 0 34 9" fill="none" xmlns="http://www.w3.org/2000/svg">
<path opacity="0.5" d="M2.60369 8H3.67472L5.22585 2.55256H5.33665L6.88778 8H7.95881L10.1193 0.909091H8.97443L7.44176 6.3196H7.3679L5.87216 0.909091H4.70881L3.1946 6.33807H3.12074L1.58807 0.909091H0.443182L2.60369 8ZM13.1662 8H14.2372L15.7884 2.55256H15.8991L17.4503 8H18.5213L20.6818 0.909091H19.5369L18.0043 6.3196H17.9304L16.4347 0.909091H15.2713L13.7571 6.33807H13.6832L12.1506 0.909091H11.0057L13.1662 8ZM23.7287 8H24.7997L26.3509 2.55256H26.4616L28.0128 8H29.0838L31.2443 0.909091H30.0994L28.5668 6.3196H28.4929L26.9972 0.909091H25.8338L24.3196 6.33807H24.2457L22.7131 0.909091H21.5682L23.7287 8ZM32.5138 8.07386C32.9709 8.07386 33.3448 7.69993 33.3448 7.2429C33.3448 6.78587 32.9709 6.41193 32.5138 6.41193C32.0568 6.41193 31.6829 6.78587 31.6829 7.2429C31.6829 7.69993 32.0568 8.07386 32.5138 8.07386Z" fill="#2C2C2C"/>
</svg>
